<?xml version="1.0" encoding="UTF-8"?>
<svg id="Layer_1" data-name="Layer 1" xmlns="http://www.w3.org/2000/svg" xmlns:xlink="http://www.w3.org/1999/xlink" version="1.1" viewBox="0 0 1188.4 259.4">
  <defs>
    <style>
      .cls-1 {
        clip-path: url(#clippath);
      }

      .cls-2 {
        fill: none;
      }

      .cls-2, .cls-3, .cls-4, .cls-5, .cls-6, .cls-7, .cls-8 {
        stroke-width: 0px;
      }

      .cls-3 {
        fill: #1a4b73;
      }

      .cls-4 {
        fill: #fafafa;
      }

      .cls-5 {
        fill: #1b293c;
      }

      .cls-6 {
        fill: #fff;
      }

      .cls-7 {
        fill: #e1ebf2;
      }

      .cls-8 {
        fill: #4aa0e7;
      }
    </style>
    <clipPath id="clippath">
      <rect class="cls-2" width="258.2" height="258.2" rx="40.8" ry="40.8"/>
    </clipPath>
  </defs>
  <g id="Sky_Pilot_-_Logotype" data-name="Sky Pilot - Logotype">
    <g id="Group_2" data-name="Group 2">
      <path id="Path_20" data-name="Path 20" class="cls-6" d="M448.5,121.6l-24-5.4c-5.3-1-10.2-3.3-14.2-6.9-3.1-3.6-4.6-8.2-4.4-12.9-.2-5.9,2.5-11.6,7.3-15,5.8-4,12.8-6,19.8-5.6,6.5-.3,12.8,1.7,17.9,5.6,4.5,3.8,7.1,9.4,7.1,15.2h26.7c0-8.4-2.4-16.6-6.9-23.8-4.3-6.8-10.4-12.1-17.7-15.4-8.4-3.8-17.5-5.7-26.7-5.4-9.8-.2-19.5,1.8-28.4,5.8-7.7,3.4-14.3,8.9-19,15.9-10.2,16.3-9,37.4,3.1,52.4,8,7.9,18.3,13.2,29.4,15l24.2,5.4c5.1.7,9.9,3,13.6,6.7,2.9,3.5,4.4,8,4.2,12.5,0,6-2.9,11.6-7.9,14.8-6.3,3.9-13.7,5.8-21.1,5.4-7.2.4-14.3-1.5-20.2-5.4-4.8-3.6-7.6-9.2-7.5-15.2h-26.7c0,8.4,2.5,16.6,7.1,23.6,4.8,6.8,11.4,12.2,19,15.6,8.9,3.8,18.5,5.6,28.2,5.4,10.1.2,20.1-1.7,29.4-5.6,8-3.5,14.8-9.2,19.6-16.5,4.7-7.4,7.1-15.9,6.9-24.6.5-10-2.9-19.7-9.6-27.1-8-7.7-18.2-12.7-29.2-14.4h0Z"/>
      <path id="Path_21" data-name="Path 21" class="cls-6" d="M870.6,60.9c-8.2-4.3-17.4-6.5-26.7-6.3h-60.3v152.6h26.7v-52.6h33.6c9.3.2,18.5-1.9,26.7-6.3,7.4-4.2,13.4-10.3,17.5-17.7,4.3-8,6.4-17,6.3-26.1.2-9.1-2-18.1-6.3-26.1-4.1-7.4-10.1-13.5-17.5-17.5h0ZM859.1,123.9c-5.8,5-13.3,7.4-20.9,6.9h-28v-52.4h28.4c7.4-.5,14.8,1.9,20.5,6.7,5.1,5,7.8,12,7.3,19.2.4,7.3-2.2,14.4-7.3,19.6h0Z"/>
      <path id="Path_22" data-name="Path 22" class="cls-6" d="M658.3,179.3l-26.5-75.2h-26.9l41.4,107.5-2.8,7.7c-1,3.4-2.8,6.6-5.2,9.2-1.8,2-4.1,3.4-6.7,4.2-2.8.9-5.8,1.3-8.8,1.3h-15.2v21.1c2.9.8,5.8,1.4,8.8,1.7,3.4.4,6.8.6,10.2.6,7.6.3,15.1-2,21.3-6.5,6.5-5.5,11.4-12.6,14.2-20.7l50.5-126h-26.3l-27.9,75.2h0Z"/>
      <path id="Path_23" data-name="Path 23" class="cls-6" d="M571.8,104.1l-40.1,43.2V51.9h-25.3v155.3h25.3v-27.8l15-15.6,26.9,43.4h29.2l-38.4-62.2,39.2-40.9h-31.9Z"/>
      <path id="Path_24" data-name="Path 24" class="cls-6" d="M1089.4,108c-17.8-9.2-39-9.2-56.8,0-8.2,4.4-15,11.1-19.6,19.2-4.9,8.6-7.3,18.3-7.1,28.2-.2,9.9,2.3,19.7,7.1,28.4,4.7,8,11.5,14.6,19.6,19,17.8,9.2,39,9.2,56.8,0,8.2-4.4,14.9-11,19.6-19,4.8-8.7,7.3-18.5,7.1-28.4.2-9.9-2.2-19.6-7.1-28.2-4.6-8.1-11.4-14.8-19.6-19.2ZM1086.9,171.9c-2.4,4.6-6,8.4-10.4,11.1-13.8,8.5-31.9,4.2-40.5-9.6-.3-.5-.6-1-.9-1.5-2.6-5.1-3.9-10.8-3.8-16.5-.1-5.7,1.2-11.4,3.8-16.5,8.4-14.4,26.8-19.3,41.3-11.1,4.4,2.6,8.1,6.5,10.4,11.1,2.6,5.1,3.9,10.8,3.8,16.5.1,5.7-1.2,11.4-3.8,16.5h0Z"/>
      <path id="Path_25" data-name="Path 25" class="cls-6" d="M1188.4,104.1h-19.8v-32.1h-25.5v32.1h-19.8v21.3h19.8v81.8h25.5v-81.8h19.8v-21.3Z"/>
      <path id="Path_26" data-name="Path 26" class="cls-6" d="M987.1,51.9h-25.3v155.3h25.3V51.9Z"/>
      <path id="Path_27" data-name="Path 27" class="cls-6" d="M923.9,52.7c-4.1,0-8.1,1.5-11.1,4.4-2.9,2.9-4.5,6.8-4.4,10.9-.3,8.3,6.2,15.2,14.5,15.4.3,0,.6,0,.9,0,4.1.1,8-1.5,10.9-4.4,3-2.9,4.7-6.9,4.6-11.1,0-4.1-1.6-8.1-4.6-10.9-2.9-2.9-6.8-4.5-10.9-4.4Z"/>
      <path id="Path_28" data-name="Path 28" class="cls-6" d="M936.8,104.1h-25.5v103.1h25.5v-103.1Z"/>
    </g>
    <g class="cls-1">
      <g id="Mask_Group_1" data-name="Mask Group 1">
        <g id="Group_1" data-name="Group 1">
          <path id="Path_15" data-name="Path 15" class="cls-4" d="M259.6,0H.2v259.4h259.4V0Z"/>
          <path id="Path_16" data-name="Path 16" class="cls-5" d="M259.6,110.6L4,259.4h255.6V110.6Z"/>
          <path id="Path_17" data-name="Path 17" class="cls-3" d="M98.6,259.4L37.7,0H.2L0,259.4h98.6Z"/>
          <path id="Path_18" data-name="Path 18" class="cls-7" d="M163.4,211.1l12.2-51.7L49.3,49.1l99.1,126.2,15,35.9Z"/>
          <path id="Path_19" data-name="Path 19" class="cls-8" d="M259.4,149.9l.2-149.9H.2v24.9l259.2,125Z"/>
        </g>
      </g>
    </g>
  </g>
</svg>